<?xml version="1.0" encoding="utf-8"?>
<svg xmlns="http://www.w3.org/2000/svg"
     viewBox="0 0 500 500">
    <path d="M 479.761 204.6C 479.377 192.182 469.608 182.185 457.505 181.762L 454.318 181.722C 446.885 181.722 426.253 182.461 400.743 187.559C 396.175 152.169 386.929 127.043 386.163 125.038C 383.895 119.04 379.329 114.256 373.536 111.795C 370.719 110.601 367.729 110.002 364.741 110.002C 361.585 110.002 358.436 110.671 355.486 112C 353.802 112.762 335.237 121.35 312.076 138.084C 291.785 98.45 268.303 72.9 266.579 71.051C 262.234 66.395 256.234 63.77 249.969 63.77C 243.703 63.77 237.703 66.395 233.367 71.042C 231.642 72.891 208.131 98.481 187.829 138.154C 164.721 121.468 146.135 112.753 144.457 111.991C 141.508 110.663 138.36 109.995 135.204 109.995C 132.217 109.995 129.227 110.591 126.409 111.786C 120.617 114.249 116.058 119.04 113.784 125.03C 113.026 127.034 103.776 152.152 99.212 187.55C 73.685 182.444 53.062 181.722 45.629 181.722L 42.426 181.762C 30.33 182.185 20.553 192.182 20.172 204.6C 20.034 209.019 17.588 313.664 80.993 378.754C 138.919 438.214 229.821 441.225 247.458 441.225L 249.818 441.194C 249.863 441.194 249.908 441.225 249.955 441.225C 250 441.225 250.046 441.194 250.093 441.194L 252.451 441.225C 270.09 441.225 360.989 438.214 418.915 378.754C 482.342 313.672 479.897 209.025 479.761 204.6Z"
          style="fill: rgb(166, 148, 162);"/>
    <path d="M 497.223 198.364C 496.81 184.978 486.301 174.202 473.28 173.745L 469.851 173.702C 461.855 173.702 439.658 174.498 412.211 179.993C 407.298 141.843 397.35 114.757 396.527 112.596C 394.087 106.127 389.175 100.972 382.943 98.319C 379.911 97.032 376.695 96.385 373.48 96.385C 370.085 96.385 366.697 97.106 363.525 98.538C 361.711 99.361 341.74 108.619 316.822 126.659C 294.991 83.932 269.728 56.389 267.873 54.396C 263.2 49.377 256.746 46.546 250.004 46.546C 243.263 46.546 236.808 49.377 232.142 54.387C 230.289 56.38 204.992 83.966 183.15 126.734C 158.291 108.744 138.296 99.352 136.491 98.529C 133.319 97.097 129.93 96.378 126.535 96.378C 123.322 96.378 120.106 97.021 117.074 98.31C 110.842 100.964 105.938 106.127 103.489 112.587C 102.674 114.748 92.725 141.826 87.813 179.984C 60.351 174.482 38.162 173.702 30.167 173.702L 26.722 173.745C 13.707 174.202 3.19 184.978 2.778 198.364C 2.63 203.129 0 315.94 68.213 386.108C 130.534 450.209 228.328 453.454 247.302 453.454L 249.84 453.421C 249.89 453.421 249.938 453.454 249.99 453.454C 250.037 453.454 250.088 453.421 250.137 453.421L 252.675 453.454C 271.65 453.454 369.444 450.209 431.764 386.108C 500 315.949 497.37 203.137 497.223 198.364ZM 373.48 121.811C 373.48 121.811 383.388 148.499 387.913 185.953C 373.588 190.082 358.703 195.626 343.925 203.043C 340.092 184.112 334.347 166.369 327.58 150.142C 352.834 131.322 373.48 121.811 373.48 121.811ZM 126.526 121.811C 126.526 121.811 147.172 131.271 172.443 150.092C 165.659 166.369 159.891 184.182 156.058 203.179C 141.28 195.76 126.419 190.131 112.084 185.995C 116.61 148.523 126.526 121.811 126.526 121.811ZM 85.709 368.128C 24.272 304.937 27.494 199.169 27.494 199.169C 27.494 199.169 28.426 199.143 30.157 199.143C 43.114 199.143 100.859 201.263 152.034 229.62C 151.441 236.31 151.095 243.1 151.095 249.999C 151.095 328.29 192.406 394.424 216.068 425.919C 180.618 421.587 124.819 408.354 85.709 368.128ZM 250.547 427.428C 250.07 427.268 249.599 427.116 248.989 426.886C 240.286 417.128 175.822 341.686 175.822 250.001C 175.822 151.677 250.004 71.972 250.004 71.972C 250.004 71.972 324.184 151.677 324.184 250.001C 324.184 344.347 256.07 421.342 250.547 427.428ZM 414.305 368.128C 375.193 408.354 319.396 421.587 283.945 425.92C 307.6 394.425 348.91 328.292 348.91 250.001C 348.91 243.057 348.565 236.226 347.954 229.494C 399.13 201.162 456.9 199.136 469.85 199.136C 471.579 199.136 472.511 199.161 472.511 199.161C 472.511 199.161 475.734 304.937 414.305 368.128Z"
          style="fill: white;"/>
</svg>
